
      <svg viewBox="0 0 39 51" fill="none" xmlns="http://www.w3.org/2000/svg">
        <path
          fill-rule="evenodd"
          clip-rule="evenodd"
          d="M35.2497 31C37.6079 27.7758 39 23.8005 39 19.5C39 8.73044 30.2696 0 19.5 0C8.73044 0 0 8.73044 0 19.5C0 23.8005 1.39212 27.7758 3.75034 31C3.83923 31.1216 3.92953 31.2421 4.02118 31.3615C4.08795 31.4485 4.15543 31.5349 4.22363 31.6208L19 51L33.9953 32.5439C34.4388 32.0514 34.8576 31.5361 35.2497 31ZM19.5 22C21.9853 22 24 19.9853 24 17.5C24 15.0147 21.9853 13 19.5 13C17.0147 13 15 15.0147 15 17.5C15 19.9853 17.0147 22 19.5 22Z"
          fill="currentColor"
        />
      </svg>