<svg viewBox="0 0 135 135" fill="none" xmlns="http://www.w3.org/2000/svg">
<circle cx="67.5" cy="67.5" r="67.5" fill="#6D8C57"/>
<path d="M36.9294 66.3421L24.4415 89.2512C23.7478 90.362 23.3593 92.6668 27.3554 93H93.5408C94.6508 92.8612 96.5378 91.917 95.2058 89.2512L79.8042 64.2594L71.0627 79.2545C69.6752 81.3372 65.7346 84.2529 61.0725 79.2545L55.6611 71.3404L46.0871 70.9239C44.2833 70.5074 39.9264 69.0079 36.9294 66.3421Z" fill="#93A667"/>
<path d="M43.1733 57.1784C41.5082 59.5387 39.6767 64.3427 45.6708 64.6759L57.7424 65.509L64.4025 75.0892C64.9576 75.6446 66.2341 76.4221 66.9001 75.0892L77.7229 57.1784C78.1391 56.4842 78.7219 54.6792 77.7229 53.0131L63.9863 30.1039C63.015 29.2709 60.7394 28.1046 59.4074 30.1039L43.1733 57.1784Z" fill="#FDF7EC"/>
<path d="M80.6367 54.6792C80.2204 54.2627 79.6377 53.0964 80.6367 51.7635L83.1343 49.2643C83.828 48.8478 85.4653 48.2647 86.4643 49.2643L110.191 86.3355C110.885 87.4463 111.773 90.0843 109.775 91.7504C109.513 91.7504 109.178 91.8054 108.789 91.8692C107.322 92.1096 105.089 92.4759 103.115 90.5008L80.6367 54.6792Z" fill="#FDF7EC"/>
</svg>
